# xmcd
#
# Track frame offsets:
#	150
#	11727
#	29755
#	54515
#	74755
#	93762
#	116345
#	133362
#	149522
#	169217
#	190652
#	205672
#
# Disc length: 2979 seconds
#
# Revision: 1
# Processed by: cddbd v1.4PL0 Copyright (c) Steve Scherf et al.
# Submitted via: audiograbber 1.81.02
#
DISCID=b30ba10c
DTITLE=Sons Of The San Joaquin - Sing One for the Cowboy
DYEAR=2000
DGENRE=western
TTITLE0=Trail To San Antone
TTITLE1=Still Water Pool
TTITLE2=Charlie And The Boys
TTITLE3=Sierra Nevada
TTITLE4=Sing One For The Cowboy
TTITLE5=Rough String Rider
TTITLE6=California
TTITLE7=Unbroke Hoss
TTITLE8=God Gave The Cowboy Montana
TTITLE9=Watch Him (Demon Desert)
TTITLE10=Texas Plains
TTITLE11=The West
EXTD=
EXTT0=
EXTT1=
EXTT2=
EXTT3=
EXTT4=
EXTT5=
EXTT6=
EXTT7=
EXTT8=
EXTT9=
EXTT10=
EXTT11=
PLAYORDER=
